<svg xmlns="http://www.w3.org/2000/svg" viewBox="0 0 1200 780" role="img" aria-labelledby="title desc">
  <title id="title">AI operations dashboard</title>
  <desc id="desc">Dark operations dashboard with panels, gauges, and routing lines.</desc>
  <defs>
    <linearGradient id="bg" x1="0" x2="1">
      <stop offset="0" stop-color="#08111e"/><stop offset="1" stop-color="#0f1f34"/>
    </linearGradient>
    <linearGradient id="a" x1="0" x2="1">
      <stop offset="0" stop-color="#55d6ff"/><stop offset="1" stop-color="#b8ff5f"/>
    </linearGradient>
  </defs>
  <rect width="1200" height="780" rx="36" fill="url(#bg)"/>
  <rect x="40" y="40" width="1120" height="700" rx="30" fill="#09131f" stroke="#235078" stroke-width="2"/>
  <g fill="none" stroke="#2a4a66" stroke-width="1.5" opacity=".6">
    <path d="M90 150h1020M90 250h1020M90 350h1020M90 450h1020M90 550h1020M90 650h1020"/>
    <path d="M240 120v560M480 120v560M720 120v560M960 120v560"/>
  </g>
  <rect x="84" y="84" width="320" height="114" rx="20" fill="#0f1e30" stroke="#2b4c69"/>
  <rect x="84" y="224" width="520" height="230" rx="20" fill="#0f1e30" stroke="#2b4c69"/>
  <rect x="632" y="224" width="484" height="230" rx="20" fill="#0f1e30" stroke="#2b4c69"/>
  <rect x="84" y="482" width="1032" height="192" rx="20" fill="#0f1e30" stroke="#2b4c69"/>
  <circle cx="230" cy="340" r="88" fill="none" stroke="url(#a)" stroke-width="8" opacity=".9"/>
  <circle cx="230" cy="340" r="50" fill="none" stroke="#55d6ff" stroke-width="8" stroke-dasharray="16 12"/>
  <circle cx="230" cy="340" r="12" fill="#b8ff5f"/>
  <path d="M230 340L410 292M230 340L402 414M230 340L150 470" stroke="url(#a)" stroke-width="3" opacity=".75"/>
  <circle cx="410" cy="292" r="8" fill="#55d6ff"/><circle cx="402" cy="414" r="8" fill="#55d6ff"/><circle cx="150" cy="470" r="8" fill="#b8ff5f"/>
  <rect x="690" y="280" width="312" height="18" rx="9" fill="#16334e"/><rect x="690" y="312" width="258" height="18" rx="9" fill="#16334e"/><rect x="690" y="344" width="202" height="18" rx="9" fill="#16334e"/>
  <rect x="118" y="520" width="220" height="26" rx="13" fill="#16334e"/><rect x="118" y="558" width="300" height="18" rx="9" fill="#16334e"/><rect x="118" y="592" width="420" height="18" rx="9" fill="#16334e"/>
  <rect x="612" y="520" width="520" height="110" rx="18" fill="#0b1624" stroke="#2b4c69"/>
  <path d="M646 592c54-36 92-62 134-78 76-29 132-24 202 6 56 24 112 70 122 82" fill="none" stroke="url(#a)" stroke-width="5" stroke-linecap="round"/>
</svg>
