<svg xmlns="http://www.w3.org/2000/svg" viewBox="0 0 1200 780" role="img" aria-labelledby="title desc">
  <title id="title">Analytics console</title>
  <desc id="desc">Premium analytics console with charts and summary panels.</desc>
  <rect width="1200" height="780" rx="36" fill="#08111e"/>
  <rect x="42" y="42" width="1116" height="696" rx="28" fill="#0e1a2c" stroke="#24435f" stroke-width="2"/>
  <rect x="84" y="88" width="1032" height="86" rx="18" fill="#11233a"/>
  <rect x="84" y="208" width="470" height="470" rx="20" fill="#11233a"/>
  <rect x="580" y="208" width="536" height="220" rx="20" fill="#11233a"/>
  <rect x="580" y="458" width="536" height="220" rx="20" fill="#11233a"/>
  <path d="M128 262h366M128 312h312M128 362h240" stroke="#314f6a" stroke-width="18" stroke-linecap="round"/>
  <path d="M128 586c72-86 102-124 154-132 52-8 98 20 156 76 34 32 50 48 80 62" fill="none" stroke="#55d6ff" stroke-width="10" stroke-linecap="round"/>
  <path d="M636 300c58-42 98-52 140-42 58 14 90 54 144 68 40 10 88 8 148-18" fill="none" stroke="#b8ff5f" stroke-width="10" stroke-linecap="round"/>
  <circle cx="780" cy="568" r="90" fill="none" stroke="#55d6ff" stroke-width="14"/>
  <circle cx="780" cy="568" r="42" fill="#b8ff5f"/>
  <rect x="606" y="496" width="94" height="18" rx="9" fill="#1d3c5a"/><rect x="606" y="530" width="172" height="18" rx="9" fill="#1d3c5a"/><rect x="606" y="564" width="248" height="18" rx="9" fill="#1d3c5a"/>
</svg>
