<svg xmlns="http://www.w3.org/2000/svg" viewBox="0 0 1200 780" role="img" aria-labelledby="title desc">
  <title id="title">Assistant panel</title>
  <desc id="desc">AI assistant panel with messages and side metrics.</desc>
  <rect width="1200" height="780" rx="36" fill="#09111d"/>
  <rect x="44" y="44" width="1112" height="692" rx="28" fill="#0e1a2c" stroke="#24435f" stroke-width="2"/>
  <rect x="88" y="92" width="1024" height="86" rx="18" fill="#11233a"/>
  <rect x="88" y="208" width="650" height="460" rx="20" fill="#11233a"/>
  <rect x="772" y="208" width="340" height="460" rx="20" fill="#11233a"/>
  <rect x="126" y="260" width="286" height="72" rx="18" fill="#15304a"/><rect x="126" y="354" width="394" height="72" rx="18" fill="#15304a"/><rect x="126" y="448" width="320" height="72" rx="18" fill="#15304a"/><rect x="126" y="542" width="430" height="72" rx="18" fill="#15304a"/>
  <circle cx="182" cy="296" r="18" fill="#55d6ff"/><circle cx="214" cy="390" r="18" fill="#b8ff5f"/><circle cx="182" cy="484" r="18" fill="#55d6ff"/><circle cx="214" cy="578" r="18" fill="#b8ff5f"/>
  <rect x="814" y="252" width="220" height="18" rx="9" fill="#1f3955"/><rect x="814" y="286" width="168" height="18" rx="9" fill="#1f3955"/><rect x="814" y="342" width="220" height="78" rx="16" fill="#15304a"/>
  <rect x="814" y="444" width="220" height="18" rx="9" fill="#1f3955"/><rect x="814" y="478" width="180" height="18" rx="9" fill="#1f3955"/><rect x="814" y="512" width="220" height="18" rx="9" fill="#1f3955"/>
</svg>
