<svg xmlns="http://www.w3.org/2000/svg" viewBox="0 0 1200 780" role="img" aria-labelledby="title desc">
  <title id="title">Automation node map</title>
  <desc id="desc">Graph of linked nodes showing workflow automation routes.</desc>
  <rect width="1200" height="780" rx="36" fill="#09111d"/>
  <g opacity=".45" stroke="#28465f" stroke-width="1.2">
    <path d="M80 160h1040M80 260h1040M80 360h1040M80 460h1040M80 560h1040M80 660h1040"/>
    <path d="M160 90v620M320 90v620M480 90v620M640 90v620M800 90v620M960 90v620M1120 90v620"/>
  </g>
  <g fill="#0f1d2d" stroke="#35556f" stroke-width="2">
    <rect x="120" y="120" width="180" height="92" rx="18"/><rect x="360" y="120" width="200" height="92" rx="18"/><rect x="640" y="120" width="180" height="92" rx="18"/><rect x="890" y="120" width="190" height="92" rx="18"/>
    <rect x="200" y="278" width="180" height="92" rx="18"/><rect x="490" y="278" width="220" height="92" rx="18"/><rect x="800" y="278" width="220" height="92" rx="18"/>
    <rect x="120" y="500" width="220" height="92" rx="18"/><rect x="430" y="500" width="210" height="92" rx="18"/><rect x="740" y="500" width="250" height="92" rx="18"/>
  </g>
  <g stroke="url(#g)" stroke-width="4" fill="none">
    <defs><linearGradient id="g" x1="0" x2="1"><stop offset="0" stop-color="#55d6ff"/><stop offset="1" stop-color="#b8ff5f"/></linearGradient></defs>
    <path d="M300 166c52 0 70 0 104 0M560 166c48 0 54 0 80 0M820 166c42 0 54 0 72 0M290 320c56 0 112 0 202 0M710 320c38 0 84 0 90 0M360 546c72 0 88 0 172 0M640 546c52 0 66 0 100 0"/>
  </g>
  <g fill="#55d6ff">
    <circle cx="300" cy="166" r="10"/><circle cx="560" cy="166" r="10"/><circle cx="820" cy="166" r="10"/><circle cx="290" cy="320" r="10"/><circle cx="710" cy="320" r="10"/><circle cx="360" cy="546" r="10"/><circle cx="640" cy="546" r="10"/>
  </g>
  <circle cx="600" cy="390" r="84" fill="none" stroke="#b8ff5f" stroke-width="8" opacity=".9"/>
  <circle cx="600" cy="390" r="30" fill="#b8ff5f"/>
</svg>
