<svg xmlns="http://www.w3.org/2000/svg" viewBox="0 0 1200 780" role="img" aria-labelledby="title desc">
  <title id="title">CRM cleanup pipeline</title>
  <desc id="desc">Pipeline that shows data cleanup, deduplication, and normalized records.</desc>
  <rect width="1200" height="780" rx="36" fill="#08111e"/>
  <rect x="46" y="46" width="1108" height="688" rx="28" fill="#0e1a2c" stroke="#24435f" stroke-width="2"/>
  <path d="M112 240h276l72 72-72 72H112l-72-72z" fill="#11233a" stroke="#35556f" stroke-width="2"/>
  <path d="M452 240h276l72 72-72 72H452l-72-72z" fill="#11233a" stroke="#35556f" stroke-width="2"/>
  <path d="M792 240h276l72 72-72 72H792l-72-72z" fill="#11233a" stroke="#35556f" stroke-width="2"/>
  <path d="M252 528h696" stroke="#55d6ff" stroke-width="10" stroke-linecap="round"/>
  <circle cx="252" cy="528" r="26" fill="#b8ff5f"/><circle cx="600" cy="528" r="26" fill="#55d6ff"/><circle cx="948" cy="528" r="26" fill="#b8ff5f"/>
  <rect x="164" y="322" width="120" height="18" rx="9" fill="#1d3c5a"/><rect x="504" y="322" width="120" height="18" rx="9" fill="#1d3c5a"/><rect x="844" y="322" width="120" height="18" rx="9" fill="#1d3c5a"/>
  <rect x="112" y="584" width="976" height="78" rx="18" fill="#11233a"/>
  <path d="M152 622c60-30 102-44 174-36 84 10 116 50 198 58 62 6 96-10 152-34 74-32 108-50 156-52 84-2 136 28 210 64" fill="none" stroke="#b8ff5f" stroke-width="6" stroke-linecap="round"/>
</svg>
