<svg xmlns="http://www.w3.org/2000/svg" viewBox="0 0 1200 780" role="img" aria-labelledby="title desc">
  <title id="title">Orbital data grid</title>
  <desc id="desc">Orbital rings and data nodes across a dark grid.</desc>
  <rect width="1200" height="780" rx="36" fill="#08111e"/>
  <g opacity=".4" stroke="#28465f" stroke-width="1.2">
    <path d="M80 120h1040M80 220h1040M80 320h1040M80 420h1040M80 520h1040M80 620h1040"/>
    <path d="M160 80v620M320 80v620M480 80v620M640 80v620M800 80v620M960 80v620M1120 80v620"/>
  </g>
  <circle cx="600" cy="390" r="178" fill="none" stroke="#55d6ff" stroke-width="8" opacity=".75"/>
  <circle cx="600" cy="390" r="112" fill="none" stroke="#b8ff5f" stroke-width="8" stroke-dasharray="16 12"/>
  <circle cx="600" cy="390" r="52" fill="#b8ff5f"/>
  <g fill="#55d6ff">
    <circle cx="600" cy="212" r="10"/><circle cx="778" cy="390" r="10"/><circle cx="600" cy="568" r="10"/><circle cx="422" cy="390" r="10"/>
    <circle cx="720" cy="270" r="8"/><circle cx="720" cy="510" r="8"/><circle cx="480" cy="510" r="8"/><circle cx="480" cy="270" r="8"/>
  </g>
  <path d="M600 212c86 0 178 92 178 178s-92 178-178 178-178-92-178-178 92-178 178-178Z" fill="none" stroke="#55d6ff" stroke-width="2" opacity=".4"/>
</svg>
