<svg xmlns="http://www.w3.org/2000/svg" viewBox="0 0 1200 780" role="img" aria-labelledby="title desc">
  <title id="title">Terminal card</title>
  <desc id="desc">Terminal-style panel with command lines and system prompts.</desc>
  <rect width="1200" height="780" rx="36" fill="#08111e"/>
  <rect x="44" y="44" width="1112" height="692" rx="28" fill="#0e1a2c" stroke="#24435f" stroke-width="2"/>
  <rect x="90" y="96" width="1020" height="586" rx="20" fill="#091523" stroke="#35556f"/>
  <circle cx="126" cy="124" r="8" fill="#ff6e6e"/><circle cx="154" cy="124" r="8" fill="#f0c85d"/><circle cx="182" cy="124" r="8" fill="#b8ff5f"/>
  <path d="M130 214h270M130 258h404M130 302h322M130 346h498M130 390h210M130 434h556M130 478h362M130 522h438M130 566h250" stroke="#1d3c5a" stroke-width="18" stroke-linecap="round"/>
  <rect x="706" y="214" width="292" height="72" rx="18" fill="#11233a"/>
  <rect x="706" y="306" width="292" height="72" rx="18" fill="#11233a"/>
  <rect x="706" y="398" width="292" height="72" rx="18" fill="#11233a"/>
  <rect x="706" y="490" width="292" height="72" rx="18" fill="#11233a"/>
  <path d="M758 250h196M758 342h152M758 434h220M758 526h112" stroke="#55d6ff" stroke-width="6" stroke-linecap="round"/>
</svg>
