<svg xmlns="http://www.w3.org/2000/svg" viewBox="0 0 1200 780" role="img" aria-labelledby="title desc">
  <title id="title">Workflow routing diagram</title>
  <desc id="desc">Linear workflow band with nodes and glowing routing paths.</desc>
  <rect width="1200" height="780" rx="36" fill="#09111d"/>
  <rect x="44" y="44" width="1112" height="692" rx="28" fill="#0e1a2c" stroke="#23435f" stroke-width="2"/>
  <path d="M120 390h960" stroke="#2f4d69" stroke-width="14" stroke-linecap="round"/>
  <path d="M120 390h960" stroke="#55d6ff" stroke-width="4" stroke-linecap="round" stroke-dasharray="16 16"/>
  <g>
    <circle cx="120" cy="390" r="42" fill="#55d6ff"/><circle cx="320" cy="390" r="42" fill="#13273f"/><circle cx="520" cy="390" r="42" fill="#13273f"/><circle cx="720" cy="390" r="42" fill="#13273f"/><circle cx="920" cy="390" r="42" fill="#b8ff5f"/><circle cx="1080" cy="390" r="42" fill="#13273f"/>
  </g>
  <g fill="#eff8ff" font-family="Arial, sans-serif" font-size="18" font-weight="700" text-anchor="middle">
    <text x="120" y="397">1</text><text x="320" y="397">2</text><text x="520" y="397">3</text><text x="720" y="397">4</text><text x="920" y="397">5</text><text x="1080" y="397">6</text>
  </g>
  <g fill="#b8ff5f" opacity=".9"><circle cx="220" cy="390" r="10"/><circle cx="420" cy="390" r="10"/><circle cx="620" cy="390" r="10"/><circle cx="820" cy="390" r="10"/><circle cx="1000" cy="390" r="10"/></g>
  <rect x="130" y="530" width="280" height="78" rx="18" fill="#11233a"/><rect x="460" y="530" width="280" height="78" rx="18" fill="#11233a"/><rect x="790" y="530" width="280" height="78" rx="18" fill="#11233a"/>
  <rect x="162" y="560" width="196" height="16" rx="8" fill="#1f3955"/><rect x="492" y="560" width="196" height="16" rx="8" fill="#1f3955"/><rect x="822" y="560" width="196" height="16" rx="8" fill="#1f3955"/>
</svg>
