<svg xmlns="http://www.w3.org/2000/svg" viewBox="0 0 1200 1500" role="img" aria-labelledby="t d">
  <title id="t">Editorial portrait mockup</title>
  <desc id="d">Warm layered shapes and portrait framing for the studio hero.</desc>
  <defs>
    <linearGradient id="bg" x1="0" x2="1" y1="0" y2="1">
      <stop offset="0" stop-color="#f3e3cf"/>
      <stop offset="0.45" stop-color="#d7c0a9"/>
      <stop offset="1" stop-color="#7d5a44"/>
    </linearGradient>
    <linearGradient id="frame" x1="0" x2="1" y1="0" y2="1">
      <stop offset="0" stop-color="#fdf7ef"/>
      <stop offset="1" stop-color="#e6d7c3"/>
    </linearGradient>
    <filter id="shadow" x="-30%" y="-30%" width="160%" height="160%">
      <feDropShadow dx="0" dy="24" stdDeviation="28" flood-color="#1a1512" flood-opacity=".22"/>
    </filter>
  </defs>
  <rect width="1200" height="1500" fill="url(#bg)"/>
  <circle cx="270" cy="210" r="180" fill="#f7eddc" opacity=".45"/>
  <circle cx="930" cy="290" r="240" fill="#fff4e3" opacity=".35"/>
  <rect x="145" y="150" width="760" height="1080" rx="44" fill="#18201d" opacity=".28"/>
  <rect x="120" y="120" width="760" height="1080" rx="44" fill="url(#frame)" filter="url(#shadow)"/>
  <rect x="190" y="190" width="640" height="560" rx="28" fill="#b88f6c"/>
  <path d="M190 620h640v180H190z" fill="#f4eadf"/>
  <path d="M190 690c110-58 196-58 300 0s195 58 340-10v130H190z" fill="#d7bba0"/>
  <path d="M270 260c120 0 205 95 205 210s-85 230-205 230-205-115-205-230 85-210 205-210Z" fill="#f5e8dc"/>
  <path d="M590 260c95 0 172 67 172 150s-77 150-172 150-172-67-172-150 77-150 172-150Z" fill="#ead7c7"/>
  <rect x="240" y="870" width="520" height="20" rx="10" fill="#b88f6c" opacity=".75"/>
  <rect x="240" y="920" width="400" height="16" rx="8" fill="#8f6449" opacity=".55"/>
  <rect x="240" y="960" width="460" height="16" rx="8" fill="#8f6449" opacity=".4"/>
  <rect x="240" y="1020" width="340" height="16" rx="8" fill="#8f6449" opacity=".28"/>
  <circle cx="930" cy="1020" r="190" fill="#17201c" opacity=".12"/>
  <circle cx="980" cy="970" r="150" fill="#f5eadc" opacity=".45"/>
</svg>

