<svg xmlns="http://www.w3.org/2000/svg" viewBox="0 0 1400 1000" role="img" aria-labelledby="t d">
  <title id="t">Salt and Linen</title>
  <desc id="d">Lifestyle portrait with coastal tones and fabric texture.</desc>
  <rect width="1400" height="1000" fill="#d9e4e0"/>
  <rect x="80" y="90" width="1240" height="820" rx="40" fill="#f6efe5" stroke="#c8d1cb" stroke-width="4"/>
  <path d="M170 700c120-180 260-250 420-210 120 30 190 110 280 110 95 0 155-70 245-100 110-36 205-20 285 55v120H170z" fill="#8aa39c"/>
  <circle cx="560" cy="360" r="150" fill="#f1d0b5"/>
  <circle cx="560" cy="330" r="110" fill="#f8e9d7"/>
  <path d="M390 520c80-30 160-32 240 0v180H390z" fill="#bfa286"/>
  <path d="M660 260c130 20 240 100 310 230 20 38 44 80 76 120H660z" fill="#d8cabd"/>
  <rect x="860" y="300" width="250" height="30" rx="15" fill="#8f6449" opacity=".34"/>
  <rect x="860" y="350" width="190" height="26" rx="13" fill="#8f6449" opacity=".25"/>
  <rect x="860" y="395" width="210" height="26" rx="13" fill="#8f6449" opacity=".2"/>
</svg>

