<svg xmlns="http://www.w3.org/2000/svg" viewBox="0 0 1400 1000" role="img" aria-labelledby="t d">
  <title id="t">Marrow and Bloom</title>
  <desc id="d">Wedding portrait in layered floral tones and cinematic framing.</desc>
  <rect width="1400" height="1000" fill="#e9d7d2"/>
  <rect x="120" y="110" width="1160" height="780" rx="34" fill="#fbf4ef" stroke="#dfc6bf" stroke-width="4"/>
  <path d="M180 720c140-140 310-190 510-150 110 22 190 80 300 82 95 2 200-40 320-118v150H180z" fill="#c07c73"/>
  <circle cx="550" cy="330" r="140" fill="#f1e1d7"/>
  <circle cx="550" cy="315" r="100" fill="#f9f0ea"/>
  <path d="M420 490c65-38 130-54 195-48 40 4 92 26 156 66v120H420z" fill="#9f6b65"/>
  <path d="M820 250c96 54 156 126 180 216 20 78 18 160-6 248H790c22-68 30-136 24-204-9-94-27-168-54-222z" fill="#e2b7b0"/>
  <circle cx="1030" cy="290" r="42" fill="#b46858"/>
  <circle cx="1080" cy="320" r="30" fill="#8f6449"/>
</svg>

