<svg xmlns="http://www.w3.org/2000/svg" viewBox="0 0 1200 760" role="img" aria-label="Automation Node Map"><defs><linearGradient id="g" x1="0" x2="1" y1="0" y2="1"><stop stop-color="#081426"/><stop offset="1" stop-color="#102a4d"/></linearGradient><filter id="glow"><feGaussianBlur stdDeviation="5" result="b"/><feMerge><feMergeNode in="b"/><feMergeNode in="SourceGraphic"/></feMerge></filter></defs><rect width="1200" height="760" rx="42" fill="url(#g)"/><path d="M80 118h1040M80 642h1040" stroke="#1e3d66" stroke-width="2"/><circle cx="100" cy="72" r="10" fill="#ff6b6b"/><circle cx="132" cy="72" r="10" fill="#ffd166"/><circle cx="164" cy="72" r="10" fill="#34d399"/><text x="88" y="132" fill="#e7f2ff" font-family="Arial, sans-serif" font-size="36" font-weight="700">Automation Node Map</text><g stroke="#39d5ff" stroke-width="5" fill="none"><path d="M220 340h230l120-110h240"/><path d="M450 340l130 130h250"/><path d="M220 340l150 160"/></g><g fill="#102a4d" stroke="#7cf7c6" stroke-width="4"><rect x="120" y="285" width="190" height="110" rx="28"/><rect x="430" y="180" width="220" height="110" rx="28"/><rect x="790" y="180" width="250" height="110" rx="28"/><rect x="500" y="430" width="220" height="110" rx="28"/><rect x="830" y="430" width="230" height="110" rx="28"/></g><path d="M930 104c90 18 140 64 154 136" stroke="#7cf7c6" stroke-width="3" opacity=".55" fill="none" filter="url(#glow)"/><circle cx="1085" cy="246" r="6" fill="#7cf7c6" filter="url(#glow)"/></svg>