<svg xmlns="http://www.w3.org/2000/svg" viewBox="0 0 1200 760" role="img" aria-label="Workflow Diagram"><defs><linearGradient id="g" x1="0" x2="1" y1="0" y2="1"><stop stop-color="#081426"/><stop offset="1" stop-color="#102a4d"/></linearGradient><filter id="glow"><feGaussianBlur stdDeviation="5" result="b"/><feMerge><feMergeNode in="b"/><feMergeNode in="SourceGraphic"/></feMerge></filter></defs><rect width="1200" height="760" rx="42" fill="url(#g)"/><path d="M80 118h1040M80 642h1040" stroke="#1e3d66" stroke-width="2"/><circle cx="100" cy="72" r="10" fill="#ff6b6b"/><circle cx="132" cy="72" r="10" fill="#ffd166"/><circle cx="164" cy="72" r="10" fill="#34d399"/><text x="88" y="132" fill="#e7f2ff" font-family="Arial, sans-serif" font-size="36" font-weight="700">Workflow Diagram</text><g fill="#0f233f" stroke="#245b91" stroke-width="4"><rect x="104" y="210" width="210" height="118" rx="24"/><rect x="390" y="210" width="210" height="118" rx="24"/><rect x="676" y="210" width="210" height="118" rx="24"/><rect x="390" y="430" width="210" height="118" rx="24"/><rect x="676" y="430" width="210" height="118" rx="24"/></g><g stroke="#9bef00" stroke-width="6" fill="none"><path d="M314 270h76"/><path d="M600 270h76"/><path d="M495 328v102"/><path d="M600 490h76"/></g><path d="M930 104c90 18 140 64 154 136" stroke="#9bef00" stroke-width="3" opacity=".55" fill="none" filter="url(#glow)"/><circle cx="1085" cy="246" r="6" fill="#9bef00" filter="url(#glow)"/></svg>