<svg xmlns="http://www.w3.org/2000/svg" viewBox="0 0 1200 760" role="img" aria-label="AI Assistant Panel"><defs><linearGradient id="g" x1="0" x2="1" y1="0" y2="1"><stop stop-color="#081426"/><stop offset="1" stop-color="#102a4d"/></linearGradient><filter id="glow"><feGaussianBlur stdDeviation="5" result="b"/><feMerge><feMergeNode in="b"/><feMergeNode in="SourceGraphic"/></feMerge></filter></defs><rect width="1200" height="760" rx="42" fill="url(#g)"/><path d="M80 118h1040M80 642h1040" stroke="#1e3d66" stroke-width="2"/><circle cx="100" cy="72" r="10" fill="#ff6b6b"/><circle cx="132" cy="72" r="10" fill="#ffd166"/><circle cx="164" cy="72" r="10" fill="#34d399"/><text x="88" y="132" fill="#e7f2ff" font-family="Arial, sans-serif" font-size="36" font-weight="700">AI Assistant Panel</text><rect x="110" y="170" width="470" height="430" rx="32" fill="#0c1f38" stroke="#245b91"/><rect x="630" y="170" width="450" height="430" rx="32" fill="#0c1f38" stroke="#245b91"/><g fill="#1a3c66"><rect x="160" y="230" width="330" height="32" rx="16"/><rect x="160" y="300" width="260" height="32" rx="16"/><rect x="160" y="370" width="350" height="32" rx="16"/></g><path d="M700 510c70-190 160-210 280-260" stroke="#39d5ff" stroke-width="10" fill="none"/><g fill="#7cf7c6"><circle cx="700" cy="510" r="14"/><circle cx="830" cy="360" r="14"/><circle cx="980" cy="250" r="14"/></g><path d="M930 104c90 18 140 64 154 136" stroke="#39d5ff" stroke-width="3" opacity=".55" fill="none" filter="url(#glow)"/><circle cx="1085" cy="246" r="6" fill="#39d5ff" filter="url(#glow)"/></svg>