<svg xmlns="http://www.w3.org/2000/svg" viewBox="0 0 1200 760" role="img" aria-label="Analytics Chart"><defs><linearGradient id="g" x1="0" x2="1" y1="0" y2="1"><stop stop-color="#081426"/><stop offset="1" stop-color="#102a4d"/></linearGradient><filter id="glow"><feGaussianBlur stdDeviation="5" result="b"/><feMerge><feMergeNode in="b"/><feMergeNode in="SourceGraphic"/></feMerge></filter></defs><rect width="1200" height="760" rx="42" fill="url(#g)"/><path d="M80 118h1040M80 642h1040" stroke="#1e3d66" stroke-width="2"/><circle cx="100" cy="72" r="10" fill="#ff6b6b"/><circle cx="132" cy="72" r="10" fill="#ffd166"/><circle cx="164" cy="72" r="10" fill="#34d399"/><text x="88" y="132" fill="#e7f2ff" font-family="Arial, sans-serif" font-size="36" font-weight="700">Analytics Chart</text><rect x="120" y="190" width="960" height="390" rx="32" fill="#0f233f" stroke="#245b91"/><g fill="#17385f"><rect x="188" y="445" width="70" height="75"/><rect x="306" y="385" width="70" height="135"/><rect x="424" y="325" width="70" height="195"/><rect x="542" y="280" width="70" height="240"/><rect x="660" y="360" width="70" height="160"/><rect x="778" y="250" width="70" height="270"/><rect x="896" y="215" width="70" height="305"/></g><path d="M190 410c130-40 200-180 330-130s180 105 290-5c70-70 110-80 180-118" stroke="#7cf7c6" stroke-width="9" fill="none"/><path d="M930 104c90 18 140 64 154 136" stroke="#7cf7c6" stroke-width="3" opacity=".55" fill="none" filter="url(#glow)"/><circle cx="1085" cy="246" r="6" fill="#7cf7c6" filter="url(#glow)"/></svg>