<svg xmlns="http://www.w3.org/2000/svg" viewBox="0 0 1200 760" role="img" aria-label="Command Center Dashboard"><defs><linearGradient id="g" x1="0" x2="1" y1="0" y2="1"><stop stop-color="#081426"/><stop offset="1" stop-color="#102a4d"/></linearGradient><filter id="glow"><feGaussianBlur stdDeviation="5" result="b"/><feMerge><feMergeNode in="b"/><feMergeNode in="SourceGraphic"/></feMerge></filter></defs><rect width="1200" height="760" rx="42" fill="url(#g)"/><path d="M80 118h1040M80 642h1040" stroke="#1e3d66" stroke-width="2"/><circle cx="100" cy="72" r="10" fill="#ff6b6b"/><circle cx="132" cy="72" r="10" fill="#ffd166"/><circle cx="164" cy="72" r="10" fill="#34d399"/><text x="88" y="132" fill="#e7f2ff" font-family="Arial, sans-serif" font-size="36" font-weight="700">Command Center Dashboard</text><rect x="86" y="170" width="300" height="180" rx="24" fill="#0f233f" stroke="#245b91"/><rect x="426" y="170" width="688" height="180" rx="24" fill="#0f233f" stroke="#245b91"/><rect x="86" y="390" width="500" height="210" rx="24" fill="#0f233f" stroke="#245b91"/><rect x="626" y="390" width="488" height="210" rx="24" fill="#0f233f" stroke="#245b91"/><path d="M142 520h80l54-70 66 36 78-104 90 138" stroke="#39d5ff" stroke-width="10" fill="none"/><g fill="#a7f3d0"><rect x="474" y="220" width="96" height="18" rx="9"/><rect x="474" y="260" width="270" height="14" rx="7"/><rect x="474" y="298" width="450" height="14" rx="7"/></g><path d="M930 104c90 18 140 64 154 136" stroke="#39d5ff" stroke-width="3" opacity=".55" fill="none" filter="url(#glow)"/><circle cx="1085" cy="246" r="6" fill="#39d5ff" filter="url(#glow)"/></svg>