<svg xmlns="http://www.w3.org/2000/svg" viewBox="0 0 1200 780" role="img" aria-labelledby="title desc">
  <title id="title">Project command center</title>
  <desc id="desc">Command center interface with major dashboard panels.</desc>
  <rect width="1200" height="780" rx="36" fill="#08111e"/>
  <rect x="42" y="42" width="1116" height="696" rx="28" fill="#0e1a2c" stroke="#24435f" stroke-width="2"/>
  <rect x="84" y="92" width="1032" height="84" rx="18" fill="#11233a"/>
  <rect x="84" y="200" width="350" height="500" rx="20" fill="#11233a"/>
  <rect x="456" y="200" width="660" height="232" rx="20" fill="#11233a"/>
  <rect x="456" y="458" width="320" height="242" rx="20" fill="#11233a"/>
  <rect x="796" y="458" width="320" height="242" rx="20" fill="#11233a"/>
  <path d="M132 258h220M132 296h178M132 334h238M132 372h150M132 410h198" stroke="#1f3955" stroke-width="18" stroke-linecap="round"/>
  <path d="M496 286c72-34 132-42 194-28 80 18 130 64 196 84 58 18 108 12 182-18" fill="none" stroke="#55d6ff" stroke-width="10" stroke-linecap="round"/>
  <path d="M496 354c68-12 128-10 184 2 66 14 116 46 188 56 52 8 116-2 172-24" fill="none" stroke="#b8ff5f" stroke-width="10" stroke-linecap="round"/>
  <circle cx="620" cy="582" r="76" fill="none" stroke="#55d6ff" stroke-width="12"/>
  <circle cx="620" cy="582" r="28" fill="#b8ff5f"/>
  <rect x="828" y="510" width="216" height="18" rx="9" fill="#1f3955"/><rect x="828" y="544" width="178" height="18" rx="9" fill="#1f3955"/><rect x="828" y="578" width="238" height="18" rx="9" fill="#1f3955"/>
</svg>
