<svg xmlns="http://www.w3.org/2000/svg" viewBox="0 0 1200 780" role="img" aria-labelledby="title desc">
  <title id="title">System health monitor</title>
  <desc id="desc">Health monitor with statuses and alerts.</desc>
  <rect width="1200" height="780" rx="36" fill="#08111e"/>
  <rect x="44" y="44" width="1112" height="692" rx="28" fill="#0e1a2c" stroke="#24435f" stroke-width="2"/>
  <rect x="90" y="92" width="1020" height="88" rx="18" fill="#11233a"/>
  <rect x="90" y="214" width="312" height="468" rx="20" fill="#11233a"/>
  <rect x="432" y="214" width="688" height="468" rx="20" fill="#11233a"/>
  <circle cx="246" cy="400" r="110" fill="none" stroke="#55d6ff" stroke-width="10"/>
  <circle cx="246" cy="400" r="66" fill="none" stroke="#b8ff5f" stroke-width="10" stroke-dasharray="18 12"/>
  <circle cx="246" cy="400" r="18" fill="#b8ff5f"/>
  <rect x="474" y="268" width="510" height="18" rx="9" fill="#1f3955"/>
  <rect x="474" y="304" width="432" height="18" rx="9" fill="#1f3955"/>
  <rect x="474" y="340" width="372" height="18" rx="9" fill="#1f3955"/>
  <rect x="474" y="392" width="602" height="88" rx="18" fill="#15304a"/>
  <path d="M508 432h534" stroke="#55d6ff" stroke-width="8" stroke-linecap="round"/>
  <rect x="474" y="510" width="602" height="88" rx="18" fill="#15304a"/>
  <path d="M508 550h214" stroke="#b8ff5f" stroke-width="8" stroke-linecap="round"/>
</svg>
